<?xml version="1.0" encoding="UTF-8" standalone="no"?>
<svg width="456" height="456" viewBox="0 0 456 456" xmlns="http://www.w3.org/2000/svg">
  <circle cx="228" cy="228" r="97.6" fill="#E23B3B"/>
  <circle cx="312.80" cy="228.00" r="33.6" fill="#E23B3B"/>
  <circle cx="306.34" cy="260.45" r="33.6" fill="#E23B3B"/>
  <circle cx="287.96" cy="287.96" r="33.6" fill="#E23B3B"/>
  <circle cx="260.45" cy="306.34" r="33.6" fill="#E23B3B"/>
  <circle cx="228.00" cy="312.80" r="33.6" fill="#E23B3B"/>
  <circle cx="195.55" cy="306.34" r="33.6" fill="#E23B3B"/>
  <circle cx="168.04" cy="287.96" r="33.6" fill="#E23B3B"/>
  <circle cx="149.66" cy="260.45" r="33.6" fill="#E23B3B"/>
  <circle cx="143.20" cy="228.00" r="33.6" fill="#E23B3B"/>
  <circle cx="149.66" cy="195.55" r="33.6" fill="#E23B3B"/>
  <circle cx="168.04" cy="168.04" r="33.6" fill="#E23B3B"/>
  <circle cx="195.55" cy="149.66" r="33.6" fill="#E23B3B"/>
  <circle cx="228.00" cy="143.20" r="33.6" fill="#E23B3B"/>
  <circle cx="260.45" cy="149.66" r="33.6" fill="#E23B3B"/>
  <circle cx="287.96" cy="168.04" r="33.6" fill="#E23B3B"/>
  <circle cx="306.34" cy="195.55" r="33.6" fill="#E23B3B"/>
  <circle cx="228" cy="228" r="83.2" fill="#ffffff"/>
  <circle cx="312.80" cy="228.00" r="19.2" fill="#ffffff"/>
  <circle cx="306.34" cy="260.45" r="19.2" fill="#ffffff"/>
  <circle cx="287.96" cy="287.96" r="19.2" fill="#ffffff"/>
  <circle cx="260.45" cy="306.34" r="19.2" fill="#ffffff"/>
  <circle cx="228.00" cy="312.80" r="19.2" fill="#ffffff"/>
  <circle cx="195.55" cy="306.34" r="19.2" fill="#ffffff"/>
  <circle cx="168.04" cy="287.96" r="19.2" fill="#ffffff"/>
  <circle cx="149.66" cy="260.45" r="19.2" fill="#ffffff"/>
  <circle cx="143.20" cy="228.00" r="19.2" fill="#ffffff"/>
  <circle cx="149.66" cy="195.55" r="19.2" fill="#ffffff"/>
  <circle cx="168.04" cy="168.04" r="19.2" fill="#ffffff"/>
  <circle cx="195.55" cy="149.66" r="19.2" fill="#ffffff"/>
  <circle cx="228.00" cy="143.20" r="19.2" fill="#ffffff"/>
  <circle cx="260.45" cy="149.66" r="19.2" fill="#ffffff"/>
  <circle cx="287.96" cy="168.04" r="19.2" fill="#ffffff"/>
  <circle cx="306.34" cy="195.55" r="19.2" fill="#ffffff"/>
  <circle cx="199.2" cy="199.2" r="22.4" fill="#E23B3B"/><circle cx="199.2" cy="199.2" r="9.6" fill="#ffffff"/>
  <circle cx="256.8" cy="256.8" r="22.4" fill="#E23B3B"/><circle cx="256.8" cy="256.8" r="9.6" fill="#ffffff"/>
  <path d="M 276.0 189.2 L 263.2 177.2 L 180.0 266.8 L 192.8 278.8 Z" fill="#E23B3B"/><circle cx="269.6" cy="183.2" r="8.8" fill="#E23B3B"/><circle cx="186.4" cy="272.8" r="8.8" fill="#E23B3B"/>
</svg>
