<?xml version="1.0" encoding="UTF-8" standalone="no"?>
<svg width="456" height="456" viewBox="0 0 456 456" xmlns="http://www.w3.org/2000/svg">
  <circle cx="228" cy="228" r="115.9" fill="#E23B3B"/>
  <circle cx="328.70" cy="228.00" r="39.9" fill="#E23B3B"/>
  <circle cx="321.03" cy="266.54" r="39.9" fill="#E23B3B"/>
  <circle cx="299.21" cy="299.21" r="39.9" fill="#E23B3B"/>
  <circle cx="266.54" cy="321.03" r="39.9" fill="#E23B3B"/>
  <circle cx="228.00" cy="328.70" r="39.9" fill="#E23B3B"/>
  <circle cx="189.46" cy="321.03" r="39.9" fill="#E23B3B"/>
  <circle cx="156.79" cy="299.21" r="39.9" fill="#E23B3B"/>
  <circle cx="134.97" cy="266.54" r="39.9" fill="#E23B3B"/>
  <circle cx="127.30" cy="228.00" r="39.9" fill="#E23B3B"/>
  <circle cx="134.97" cy="189.46" r="39.9" fill="#E23B3B"/>
  <circle cx="156.79" cy="156.79" r="39.9" fill="#E23B3B"/>
  <circle cx="189.46" cy="134.97" r="39.9" fill="#E23B3B"/>
  <circle cx="228.00" cy="127.30" r="39.9" fill="#E23B3B"/>
  <circle cx="266.54" cy="134.97" r="39.9" fill="#E23B3B"/>
  <circle cx="299.21" cy="156.79" r="39.9" fill="#E23B3B"/>
  <circle cx="321.03" cy="189.46" r="39.9" fill="#E23B3B"/>
  <circle cx="228" cy="228" r="98.8" fill="#ffffff"/>
  <circle cx="328.70" cy="228.00" r="22.8" fill="#ffffff"/>
  <circle cx="321.03" cy="266.54" r="22.8" fill="#ffffff"/>
  <circle cx="299.21" cy="299.21" r="22.8" fill="#ffffff"/>
  <circle cx="266.54" cy="321.03" r="22.8" fill="#ffffff"/>
  <circle cx="228.00" cy="328.70" r="22.8" fill="#ffffff"/>
  <circle cx="189.46" cy="321.03" r="22.8" fill="#ffffff"/>
  <circle cx="156.79" cy="299.21" r="22.8" fill="#ffffff"/>
  <circle cx="134.97" cy="266.54" r="22.8" fill="#ffffff"/>
  <circle cx="127.30" cy="228.00" r="22.8" fill="#ffffff"/>
  <circle cx="134.97" cy="189.46" r="22.8" fill="#ffffff"/>
  <circle cx="156.79" cy="156.79" r="22.8" fill="#ffffff"/>
  <circle cx="189.46" cy="134.97" r="22.8" fill="#ffffff"/>
  <circle cx="228.00" cy="127.30" r="22.8" fill="#ffffff"/>
  <circle cx="266.54" cy="134.97" r="22.8" fill="#ffffff"/>
  <circle cx="299.21" cy="156.79" r="22.8" fill="#ffffff"/>
  <circle cx="321.03" cy="189.46" r="22.8" fill="#ffffff"/>
  <circle cx="193.8" cy="193.8" r="26.6" fill="#E23B3B"/><circle cx="193.8" cy="193.8" r="11.4" fill="#ffffff"/>
  <circle cx="262.2" cy="262.2" r="26.6" fill="#E23B3B"/><circle cx="262.2" cy="262.2" r="11.4" fill="#ffffff"/>
  <path d="M 285.1 181.9 L 269.7 167.7 L 170.9 274.1 L 186.3 288.3 Z" fill="#E23B3B"/><circle cx="277.4" cy="174.8" r="10.4" fill="#E23B3B"/><circle cx="178.6" cy="281.2" r="10.4" fill="#E23B3B"/>
</svg>
