<?xml version="1.0" encoding="UTF-8" standalone="no"?>
<svg width="456" height="456" viewBox="0 0 456 456" xmlns="http://www.w3.org/2000/svg">
  <circle cx="228" cy="228" r="122.0" fill="#E23B3B"/>
  <circle cx="334.00" cy="228.00" r="42.0" fill="#E23B3B"/>
  <circle cx="325.93" cy="268.56" r="42.0" fill="#E23B3B"/>
  <circle cx="302.95" cy="302.95" r="42.0" fill="#E23B3B"/>
  <circle cx="268.56" cy="325.93" r="42.0" fill="#E23B3B"/>
  <circle cx="228.00" cy="334.00" r="42.0" fill="#E23B3B"/>
  <circle cx="187.44" cy="325.93" r="42.0" fill="#E23B3B"/>
  <circle cx="153.05" cy="302.95" r="42.0" fill="#E23B3B"/>
  <circle cx="130.07" cy="268.56" r="42.0" fill="#E23B3B"/>
  <circle cx="122.00" cy="228.00" r="42.0" fill="#E23B3B"/>
  <circle cx="130.07" cy="187.44" r="42.0" fill="#E23B3B"/>
  <circle cx="153.05" cy="153.05" r="42.0" fill="#E23B3B"/>
  <circle cx="187.44" cy="130.07" r="42.0" fill="#E23B3B"/>
  <circle cx="228.00" cy="122.00" r="42.0" fill="#E23B3B"/>
  <circle cx="268.56" cy="130.07" r="42.0" fill="#E23B3B"/>
  <circle cx="302.95" cy="153.05" r="42.0" fill="#E23B3B"/>
  <circle cx="325.93" cy="187.44" r="42.0" fill="#E23B3B"/>
  <circle cx="228" cy="228" r="104.0" fill="#ffffff"/>
  <circle cx="334.00" cy="228.00" r="24.0" fill="#ffffff"/>
  <circle cx="325.93" cy="268.56" r="24.0" fill="#ffffff"/>
  <circle cx="302.95" cy="302.95" r="24.0" fill="#ffffff"/>
  <circle cx="268.56" cy="325.93" r="24.0" fill="#ffffff"/>
  <circle cx="228.00" cy="334.00" r="24.0" fill="#ffffff"/>
  <circle cx="187.44" cy="325.93" r="24.0" fill="#ffffff"/>
  <circle cx="153.05" cy="302.95" r="24.0" fill="#ffffff"/>
  <circle cx="130.07" cy="268.56" r="24.0" fill="#ffffff"/>
  <circle cx="122.00" cy="228.00" r="24.0" fill="#ffffff"/>
  <circle cx="130.07" cy="187.44" r="24.0" fill="#ffffff"/>
  <circle cx="153.05" cy="153.05" r="24.0" fill="#ffffff"/>
  <circle cx="187.44" cy="130.07" r="24.0" fill="#ffffff"/>
  <circle cx="228.00" cy="122.00" r="24.0" fill="#ffffff"/>
  <circle cx="268.56" cy="130.07" r="24.0" fill="#ffffff"/>
  <circle cx="302.95" cy="153.05" r="24.0" fill="#ffffff"/>
  <circle cx="325.93" cy="187.44" r="24.0" fill="#ffffff"/>
  <circle cx="192" cy="192" r="28" fill="#E23B3B"/><circle cx="192" cy="192" r="12" fill="#ffffff"/>
  <circle cx="264" cy="264" r="28" fill="#E23B3B"/><circle cx="264" cy="264" r="12" fill="#ffffff"/>
  <path d="M 288.1 179.5 L 271.9 164.5 L 167.9 276.5 L 184.1 291.5 Z" fill="#E23B3B"/><circle cx="280" cy="172" r="11" fill="#E23B3B"/><circle cx="176" cy="284" r="11" fill="#E23B3B"/>
</svg>
